<?xml version="1.0" encoding="utf-8"?>
<!-- Generator: Adobe Illustrator 16.0.4, SVG Export Plug-In . SVG Version: 6.00 Build 0)  -->
<!DOCTYPE svg PUBLIC "-//W3C//DTD SVG 1.1//EN" "http://www.w3.org/Graphics/SVG/1.1/DTD/svg11.dtd">
<svg version="1.1" id="Layer_1" xmlns="http://www.w3.org/2000/svg" xmlns:xlink="http://www.w3.org/1999/xlink" x="0px" y="0px"
	 width="100px" height="61.285px" viewBox="0 0 100 61.285" enable-background="new 0 0 100 61.285" xml:space="preserve">
<path d="M0,41.562c0,10.699,8.704,19.402,19.404,19.402c9.363,0,17.201-6.668,19.01-15.508c0.072,0.002,0.143,0.002,0.216,0.002
	c15.274-0.606,4.626,4.248,33.013-25.693c0.486,1.515,0.94,2.933,1.362,4.261c-6.937,2.96-11.812,9.849-11.812,17.854
	c0,10.699,8.703,19.404,19.404,19.404C91.296,61.285,100,52.58,100,41.88c0-10.698-8.704-19.403-19.402-19.403
	c-1.218,0-2.406,0.118-3.561,0.333C69.495-1.45,71.938,0.137,57.854,0v3.877c10.23-0.018,8.946-0.596,11.22,7.343H35.33l-1.32-3.713
	c7.563-1.677,9.662-1.668,8.168-3.712H25.1V7.59l4.537,0.083l1.32,3.63c-2.068,4.604-3.836,8.526-5.348,11.878
	c-1.95-0.66-4.035-1.024-6.205-1.024C8.704,22.157,0,30.863,0,41.562z M74.381,28.385c4.828,15.385,4.393,15.066,6.325,15.261
	c1.078-0.072,1.935-0.915,1.912-1.977c-0.029-1.26,0.539,0.44-4.196-14.492c0.71-0.104,1.436-0.161,2.176-0.161
	c8.195,0,14.863,6.668,14.863,14.863c0,8.197-6.669,14.865-14.865,14.865c-8.195,0-14.863-6.668-14.863-14.865
	C65.732,35.902,69.281,30.741,74.381,28.385z M37.029,15.313l33.02,0.059L46.572,40.957L37.029,15.313z M29.415,24.946l3.634-8.052
	l9.367,24.588l-3.609,0.012C38.781,34.482,35.021,28.336,29.415,24.946z M34.268,41.505l-12.343,0.035l5.604-12.417
	C31.568,31.771,34.247,36.33,34.268,41.505z M4.541,41.562c0-8.197,6.668-14.865,14.863-14.865c1.505,0,2.957,0.227,4.326,0.645
	c-6.733,14.902-7.024,15.438-7.045,16.22c0.215,2.684,1.596,1.891,17.066,1.876c-1.71,6.321-7.494,10.987-14.348,10.987
	C11.208,56.425,4.541,49.759,4.541,41.562z"/>
</svg>
