<svg xmlns="http://www.w3.org/2000/svg" xmlns:xlink="http://www.w3.org/1999/xlink" version="1.1" x="0px" y="0px" viewBox="0 0 100 125" enable-background="new 0 0 100 100" xml:space="preserve"><path fill="#000000" d="M94,24h-2V14c0-3.3-2.415-7.208-5.366-8.683C86.634,5.317,76,0,50,0S13.367,5.317,13.367,5.317  C10.415,6.792,8,10.7,8,14v10H6c-3.3,0-6,2.7-6,6v6c0,3.3,2.7,6,6,6h2v41c0,2.599,1.677,4.818,4,5.647V92c0,4.4,3.6,8,8,8s8-3.6,8-8  v-3h44v3c0,4.4,3.6,8,8,8s8-3.6,8-8v-3.353c2.323-0.829,4-3.049,4-5.647V42h2c3.3,0,6-2.7,6-6v-6C100,26.7,97.3,24,94,24z M30,10  c0-1.1,0.9-2,2-2h36c1.1,0,2,0.9,2,2v4c0,1.1-0.9,2-2,2H32c-1.1,0-2-0.9-2-2V10z M21,81c-2.762,0-5-2.24-5-5s2.238-5,5-5  c2.761,0,5,2.24,5,5S23.761,81,21,81z M79,81c-2.762,0-5-2.24-5-5s2.238-5,5-5s5,2.24,5,5S81.762,81,79,81z M84,58c0,1.1-0.9,2-2,2  H18c-1.1,0-2-0.9-2-2V26c0-1.1,0.9-2,2-2h64c1.1,0,2,0.9,2,2V58z"/><text x="0" y="115" fill="#000000" font-size="5px" font-weight="bold" font-family="'Helvetica Neue', Helvetica, Arial-Unicode, Arial, Sans-serif">Created by Jens Tärning</text><text x="0" y="120" fill="#000000" font-size="5px" font-weight="bold" font-family="'Helvetica Neue', Helvetica, Arial-Unicode, Arial, Sans-serif">from the Noun Project</text></svg>