<?xml version="1.0" encoding="utf-8"?>
<!-- Generator: Adobe Illustrator 16.0.4, SVG Export Plug-In . SVG Version: 6.00 Build 0)  -->
<!DOCTYPE svg PUBLIC "-//W3C//DTD SVG 1.1//EN" "http://www.w3.org/Graphics/SVG/1.1/DTD/svg11.dtd">
<svg version="1.1" xmlns="http://www.w3.org/2000/svg" xmlns:xlink="http://www.w3.org/1999/xlink" x="0px" y="0px" width="50px"
	 height="50px" viewBox="0 0 50 50" enable-background="new 0 0 50 50" xml:space="preserve">
<g id="Layer_1">
	<path fill-rule="evenodd" clip-rule="evenodd" d="M35.698,33.893c-7.027,0-14.064,0-21.187,0c-0.005-3.383-1.132-6.017-4.35-6.947
		c-3.986-1.153-6.363,1.061-7.861,4.608c-0.169-0.072-0.338-0.143-0.507-0.213c0.304-2.175,0.558-4.358,0.938-6.519
		c0.127-0.72,0.586-1.093,1.506-0.7c0.592,0.254,1.38,0.048,2.117-0.092c-0.311-0.091-0.621-0.182-1.299-0.381
		c0.972-0.053,1.573-0.087,2.174-0.12c-0.004-0.086-0.009-0.172-0.013-0.257c-0.826,0-1.657-0.056-2.477,0.014
		c-1.069,0.09-1.604-0.485-1.387-1.386c0.513-2.128,1.187-4.218,1.845-6.309c0.235-0.745,0.627-1.438,0.925-2.165
		c1.159-2.833,1.152-2.891,4.895-3.077c3.589-0.178,7.185-0.27,10.778-0.306c4.549-0.046,8.528,1.324,12.056,4.383
		c3.072,2.664,6.218,5.274,9.973,7.083c2.844,1.371,4.142,4.031,4.36,7.181c0.083,1.186,0.252,2.367,0.274,3.553
		c0.011,0.525-0.245,1.058-0.556,1.583c0.148-2.967-0.867-5.257-3.507-6.627c-2.245-1.165-4.429-0.807-6.374,0.693
		C36.073,29.396,35.39,31.465,35.698,33.893z M37.4,19.697c0.098-0.134,0.194-0.268,0.29-0.402c-1.14-1.056-2.234-2.166-3.432-3.153
		c-1.326-1.094-2.665-2.209-4.138-3.081c-3.741-2.213-7.945-2.221-12.094-2.089c-2.565,0.081-4.092,1.86-4.333,4.549
		c-0.023,0.254,0.388,0.668,0.69,0.809c0.948,0.441,1.928,0.823,2.919,1.157c0.823,0.278,1.669,0.571,2.524,0.655
		c2.711,0.266,5.434,0.412,8.149,0.651C31.12,19.068,34.26,19.393,37.4,19.697z M34.056,32.275
		c-0.027-0.179-0.055-0.357-0.083-0.536c-3.019-0.413-6.04-0.804-9.054-1.248c-1.925-0.283-4.018-0.244-5.367-1.999
		c-1.739-2.264-3.49-4.526-5.062-6.903c-1.017-1.537-2.273-3.167-1.783-5.18c0.516-2.116,1.078-4.286,3.317-5.809
		c-2.029,0.125-3.711,0.195-5.382,0.362c-0.329,0.033-0.752,0.372-0.909,0.682c-0.835,1.659-1.628,3.341-2.367,5.045
		c-0.177,0.407-0.092,0.927-0.096,0.967c0.918,0.553,1.714,0.783,2.109,1.312c2.676,3.586,5.224,7.268,7.921,10.838
		c0.606,0.801,1.582,1.704,2.489,1.83c3.904,0.547,7.843,0.864,11.777,1.158C32.379,32.855,33.226,32.46,34.056,32.275z
		 M33.969,31.223c0.194,0.062,0.389,0.123,0.582,0.184c1.122-3.595,2.244-7.189,3.366-10.783c-0.146-0.046-0.292-0.092-0.438-0.138
		C36.309,24.064,35.14,27.644,33.969,31.223z M47.451,28.912c-0.327-1.773-2.24-3.031-5.132-3.451
		c-0.335-0.048-0.724,0.274-1.087,0.424c0.015,0.144,0.029,0.288,0.044,0.432C43.883,25.943,45.852,26.991,47.451,28.912z"/>
	<path fill-rule="evenodd" clip-rule="evenodd" d="M3.62,32.679c-0.022-2.672,2.182-4.92,4.899-4.864
		c3.204,0.066,4.75,2.055,4.961,5.083c0.162,2.309-2.568,4.966-4.919,4.801C5.786,37.504,3.833,35.844,3.62,32.679z"/>
	<path fill-rule="evenodd" clip-rule="evenodd" d="M46.68,32.649c-0.186,3.129-2.111,4.836-4.916,5.05
		c-2.413,0.184-5.188-2.642-4.935-5.111c0.286-2.794,2.13-4.855,4.952-4.797C44.541,27.849,46.691,29.94,46.68,32.649z"/>
	<path fill-rule="evenodd" clip-rule="evenodd" fill="#FFFFFF" d="M37.4,19.697c-3.141-0.304-6.28-0.628-9.424-0.905
		c-2.715-0.239-5.438-0.385-8.149-0.651c-0.855-0.084-1.701-0.377-2.524-0.655c-0.991-0.334-1.971-0.716-2.919-1.157
		c-0.302-0.141-0.713-0.555-0.69-0.809c0.242-2.689,1.769-4.468,4.333-4.549c4.148-0.132,8.353-0.124,12.094,2.089
		c1.473,0.871,2.812,1.987,4.138,3.081c1.197,0.987,2.292,2.097,3.432,3.153C37.595,19.429,37.498,19.563,37.4,19.697z"/>
	<path fill-rule="evenodd" clip-rule="evenodd" fill="#FFFFFF" d="M34.056,32.275c-0.83,0.185-1.677,0.58-2.489,0.519
		c-3.934-0.294-7.873-0.611-11.777-1.158c-0.907-0.126-1.883-1.029-2.489-1.83c-2.697-3.57-5.245-7.252-7.921-10.838
		c-0.395-0.528-1.191-0.758-2.109-1.312c0.003-0.04-0.081-0.56,0.096-0.967c0.739-1.704,1.531-3.387,2.367-5.045
		c0.156-0.311,0.58-0.649,0.909-0.682c1.671-0.167,3.354-0.236,5.382-0.362c-2.239,1.522-2.801,3.692-3.317,5.809
		c-0.49,2.014,0.766,3.643,1.783,5.18c1.572,2.377,3.324,4.64,5.062,6.903c1.349,1.755,3.442,1.716,5.367,1.999
		c3.014,0.444,6.036,0.835,9.054,1.248C34.001,31.918,34.028,32.097,34.056,32.275z"/>
	<path fill-rule="evenodd" clip-rule="evenodd" fill="#FFFFFF" d="M33.969,31.223c1.171-3.579,2.34-7.158,3.51-10.737
		c0.146,0.045,0.292,0.092,0.438,0.138c-1.122,3.594-2.244,7.188-3.366,10.783C34.357,31.346,34.163,31.284,33.969,31.223z"/>
	<path fill-rule="evenodd" clip-rule="evenodd" fill="#FFFFFF" d="M47.451,28.912c-1.6-1.921-3.568-2.969-6.175-2.595
		c-0.015-0.144-0.029-0.288-0.044-0.432c0.363-0.15,0.752-0.473,1.087-0.424C45.211,25.881,47.124,27.139,47.451,28.912z"/>
</g>
<g id="Layer_2">
</g>
</svg>
