<svg xmlns="http://www.w3.org/2000/svg" xmlns:xlink="http://www.w3.org/1999/xlink" version="1.1" x="0px" y="0px" width="100px" height="36.669px" viewBox="0 33.947 100 36.669" enable-background="new 0 33.947 100 36.669" xml:space="preserve">
<g id="Layer_1" display="none">
	<g id="St9YL3_1_" display="inline" opacity="0.39">
		
			</g>
</g>
<g id="Layer_2">
	<path d="M15.524,55.357c-4.213,0-7.629,3.418-7.629,7.631s3.416,7.63,7.629,7.63c4.215,0,7.63-3.417,7.63-7.63   S19.738,55.357,15.524,55.357z M15.524,66.189c-1.778,0-3.219-1.441-3.219-3.22s1.441-3.221,3.219-3.221   c1.777,0,3.219,1.442,3.219,3.221C18.742,64.748,17.301,66.189,15.524,66.189z"/>
	<path d="M82.53,55.355c-4.215,0-7.632,3.417-7.632,7.629c0,4.214,3.417,7.631,7.632,7.631c4.212,0,7.63-3.417,7.63-7.631   C90.16,58.772,86.742,55.355,82.53,55.355z M82.53,66.189c-1.778,0-3.222-1.441-3.222-3.22s1.443-3.221,3.222-3.221   s3.223,1.442,3.223,3.221S84.309,66.189,82.53,66.189z"/>
	<path d="M78.23,44.515c0,0-18.764-8.75-24.754-10.018c-5.987-1.268-26.597-0.115-28.554,1.151l-11.515,5.64L2.125,46.815   L0.298,57.465c0,0-0.05,6.318,0.388,7.773h5.527l0.071-2.25c0-5.103,4.138-9.24,9.243-9.24c5.103,0,9.238,4.138,9.238,9.24   l0.158,2.25h48.359l0.007-2.83c0-5.103,3.856-8.87,8.959-8.87s9.523,3.768,9.523,8.87l0.19,2.616c0,0,5.845,0.33,7.688-0.361   c0,0,0.69-9.787-2.878-13.357C93.603,48.308,87.213,46.44,78.23,44.515z M25.956,45.896c0,0,2.363-5.01,4.943-6.924   c1.911-1.627,12.446-1.583,12.446-1.583l0.389,9.715L25.956,45.896z M71.613,48.198l-24.698-0.978l-0.577-9.846   c9.154-0.344,19.576,4.549,25.563,8.06C77.89,48.946,71.613,48.198,71.613,48.198z"/>
</g>
</svg>