<svg xmlns="http://www.w3.org/2000/svg" xmlns:xlink="http://www.w3.org/1999/xlink" version="1.1" id="Your_Icon" x="0px" y="0px" width="100px" height="100px" viewBox="0 0 100 100" enable-background="new 0 0 100 100" xml:space="preserve">
<path d="M96.216,14.354c-1.526-1.069-3.662-0.667-4.727,0.85c-0.309,0.442-0.618,0.884-0.928,1.326  c-1.5,2.143-9.399,13.424-9.658,13.794c0,0.001-11.504-8.054-13.55-9.486c-0.562-0.393-1.107-0.808-1.733-1.093  c-0.905-0.414-1.904-0.62-2.898-0.62c-1.875,0-18.011,0-19.831,0c-1.178,0-2.256,0.504-2.939,1.48  c-0.282,0.401-12.01,17.15-13.034,18.613c-0.094,0.134-0.19,0.269-0.275,0.411c-0.521,0.876-0.615,1.963-0.257,2.918  c0.397,1.055,1.321,1.861,2.421,2.109c1.13,0.255,2.345-0.1,3.158-0.927c0.357-0.364,0.633-0.825,0.925-1.241  c0.548-0.782,11.323-16.17,11.605-16.573c0.042-0.061,10.868-0.023,11.475-0.023c-0.642,0.915-25.248,36.184-25.299,36.184  c-0.14,0-22.682,0-23.074,0c-1.934,0-3.699,1.278-4.295,3.12c-0.635,1.96,0.178,4.157,1.931,5.235  c0.834,0.514,1.755,0.668,2.715,0.668c1.779,0,23.514,0,24.324,0c0.561,0,1.125,0.021,1.679-0.096  c1.12-0.236,2.126-0.891,2.783-1.83c0.084-0.119,0.167-0.239,0.25-0.356c0.522-0.746,8.214-11.732,9.08-12.968  c1.38,0.966,13.229,9.227,13.229,9.278c0,0.12,0,25.463,0,27.004c0,1.24,0.401,2.419,1.278,3.317  c1.439,1.477,3.771,1.786,5.543,0.728c1.375-0.823,2.199-2.324,2.199-3.919c0-0.402,0-0.806,0-1.208c0-2.061,0-26.355,0-27.96  c0-1.089-0.237-2.119-0.894-3.019c-0.516-0.705-1.259-1.165-1.965-1.658c-2.205-1.544-9.781-6.85-9.979-6.989  c-0.565-0.396-0.777-1.247-0.365-1.834c0.707-1.01,13.551-19.445,13.612-19.531c1.537,1.078,8.666,6.068,10.69,7.487  c0.127,0.088,0.253,0.177,0.38,0.266c0.996,0.698,2.323,0.803,3.418,0.272c0.755-0.365,1.207-0.979,1.666-1.635  c1.215-1.735,10.879-15.538,11.979-17.109c0.269-0.383,0.517-0.768,0.655-1.222C97.937,16.728,97.402,15.184,96.216,14.354  C94.686,13.281,97.746,15.425,96.216,14.354z"/>
<path d="M72.297,18.559c2.028,0,3.982-0.933,5.26-2.508c1.293-1.595,1.793-3.739,1.346-5.742c-0.438-1.951-1.757-3.643-3.537-4.55  c-1.834-0.935-4.054-0.973-5.92-0.105c-1.811,0.843-3.187,2.486-3.693,4.418c-0.521,1.987-0.097,4.152,1.142,5.792  C68.163,17.549,70.188,18.559,72.297,18.559C76.035,18.559,68.561,18.559,72.297,18.559z"/>
</svg>