<?xml version="1.0" encoding="utf-8"?>
<!-- Generator: Adobe Illustrator 21.1.0, SVG Export Plug-In . SVG Version: 6.00 Build 0)  -->
<svg version="1.1" id="Layer_1" xmlns="http://www.w3.org/2000/svg" xmlns:xlink="http://www.w3.org/1999/xlink" x="0px" y="0px"
	 viewBox="0 0 89.7 90.3" style="enable-background:new 0 0 89.7 90.3;" xml:space="preserve">
<path d="M78.4,83.9c6.2,0,11.3-5.1,11.3-11.3c0-5.8-4.3-10.6-10-11.2l-0.4,0L67.8,9.8c-0.3-1.6-1.7-2.6-3.3-2.6H53.2
	c-1.9,0-3.4,1.5-3.4,3.4s1.5,3.4,3.4,3.4h8.6l6.5,29.5l-0.1,0.2L56.1,69.1l-24,0.1l-0.1-0.5c-1-9.6-9.1-16.9-18.8-16.9
	c-1.3,0-2.4,1.1-2.4,2.4s1.1,2.4,2.4,2.4c6.9,0,12.9,5.2,13.9,12l0.1,0.7l-5.2,0l-0.1-0.4c-1.6-4.5-5.9-7.5-10.6-7.5c0,0,0,0,0,0
	c-3,0-5.8,1.2-8,3.3c-2.1,2.1-3.3,5-3.3,8c0,6.2,5.1,11.3,11.3,11.3c4.8,0,9.1-3,10.7-7.6l0.1-0.4l36.2-0.1c1.3,0,2.5-0.8,3-1.9
	l9.4-19.8l1.9,8.8l-0.3,0.2c-3.3,2.1-5.2,5.7-5.2,9.5C67.1,78.9,72.1,83.9,78.4,83.9z M16.2,77c-1.2,1.4-3,2.2-4.9,2.2
	c-3.6,0-6.5-2.9-6.5-6.5c0-3.6,2.9-6.5,6.5-6.5c1.8,0,3.6,0.8,4.8,2.2l0.9,1l-3.7,0c-0.9,0-1.8,0.4-2.4,1c-0.6,0.6-1,1.5-1,2.4
	c0,1.9,1.5,3.4,3.4,3.4l3.7,0L16.2,77z M73,69l0.8-1.1l0.7,3.3c0.4,1.8,2.2,3,4,2.6c1.8-0.4,3-2.2,2.6-4l-0.8-3.4l1.1,0.6
	c2.1,1.1,3.5,3.3,3.5,5.8c0,3.6-2.9,6.5-6.5,6.5c-3.6,0-6.5-2.9-6.5-6.5C71.9,71.3,72.2,70.1,73,69z"/>
</svg>
