<svg xmlns="http://www.w3.org/2000/svg" xmlns:xlink="http://www.w3.org/1999/xlink" version="1.1" x="0px" y="0px" viewBox="0 0 100 125" enable-background="new 0 0 100 100" xml:space="preserve"><g><path fill="#000000" d="M91.767,45.533l-17.136-0.254c-3.439-3.336-10.388-11.505-11.905-13.129   c-1.884-2.014-3.991-1.689-3.991-1.689h-2.423v-3.01c0-1.184-0.536-1.451-1.2-1.451H53.61c-0.663,0-1.2,0.268-1.2,1.451v3.01   H39.266h-9.304c-2.162-0.216-3.064,1.232-3.064,1.232l-9.769,13.361l-9.012,0.133C3.843,45.355,3,48.17,3,50.996v7.995   c0,2.827,2.291,5.118,5.117,5.118h5.233c0.426-5.384,4.932-9.639,10.422-9.639s9.998,4.255,10.422,9.639h29.285   c0.425-5.384,4.932-9.639,10.422-9.639s9.998,4.255,10.422,9.639h7.443c2.827,0,5.118-2.291,5.118-5.118v-7.995   C96.885,48.17,94.594,45.533,91.767,45.533z M23.046,45.684c-1.618,0-1.393-0.939-0.871-1.703c1.689-2.475,3.047-4.381,5.307-7.785   c1.754-2.643,2.158-2.441,3.338-2.441c0.881,0,13.517,0.049,13.882,0.039c1.545-0.039,1.562,1.246,1.562,1.246l-0.038,10.589   C46.226,45.628,24.804,45.684,23.046,45.684z M58.732,54.243h-4.703v3.674h-4.705v-3.674h-4.705v3.674h-4.704v-3.674H35.21v-3.672   h4.705v3.672h4.704v-3.672h4.705v3.672h4.705v-3.672h4.703V54.243z M67.661,45.684c-6.281,0-18.182-0.056-18.182-0.056   l-0.082-10.521c0,0-0.146-1.219,1.217-1.246c0.492-0.01,6.111,0.029,7.293,0.029c1.183,0,1.73-0.051,3.84,2.65   c0,0,6.271,7.261,6.393,7.439C68.646,44.723,68.188,45.684,67.661,45.684z"/><path fill="#000000" d="M73.952,56.703c-4.635,0-8.406,3.77-8.406,8.405c0,4.637,3.771,8.407,8.406,8.407   c4.636,0,8.407-3.771,8.407-8.407C82.359,60.473,78.588,56.703,73.952,56.703z"/><path fill="#000000" d="M23.693,56.703c-4.635,0-8.406,3.77-8.406,8.405c0,4.637,3.771,8.407,8.406,8.407   c4.636,0,8.407-3.771,8.407-8.407C32.101,60.473,28.329,56.703,23.693,56.703z"/></g><text x="0" y="115" fill="#000000" font-size="5px" font-weight="bold" font-family="'Helvetica Neue', Helvetica, Arial-Unicode, Arial, Sans-serif">Created by Rémy Médard</text><text x="0" y="120" fill="#000000" font-size="5px" font-weight="bold" font-family="'Helvetica Neue', Helvetica, Arial-Unicode, Arial, Sans-serif">from the Noun Project</text></svg>