<?xml version="1.0" encoding="utf-8"?>
<!-- Generator: Adobe Illustrator 14.0.0, SVG Export Plug-In . SVG Version: 6.00 Build 43363)  -->
<!DOCTYPE svg PUBLIC "-//W3C//DTD SVG 1.0//EN" "http://www.w3.org/TR/2001/REC-SVG-20010904/DTD/svg10.dtd">
<svg version="1.0" id="Layer_1" xmlns="http://www.w3.org/2000/svg" xmlns:xlink="http://www.w3.org/1999/xlink" x="0px" y="0px"
	 width="66.461px" height="100px" viewBox="0 0 66.461 100" enable-background="new 0 0 66.461 100" xml:space="preserve">
<path d="M28.549,7.023c-1.933-0.007-3.508-1.582-3.512-3.511C25.041,1.555,26.616-0.021,28.549,0
	c1.952-0.021,3.526,1.555,3.511,3.512C32.075,5.441,30.5,7.016,28.549,7.023L28.549,7.023z"/>
<path d="M37.913,7.023c1.936-0.007,3.512-1.582,3.512-3.511c0-1.957-1.576-3.532-3.512-3.512c-1.95-0.021-3.525,1.555-3.512,3.512
	C34.388,5.441,35.963,7.016,37.913,7.023L37.913,7.023z"/>
<path d="M51.856,78.064c4.872-0.809,9.73-5.898,9.719-12.109V20.611C61.587,14.218,56.2,8.34,48.903,8.347H33.281H17.606
	C10.265,8.34,4.878,14.218,4.885,20.611v45.344c-0.007,6.211,4.852,11.301,9.719,12.109L0,100h8.446l10.432-15.37H33.23h14.351
	L58.063,100h8.397L51.856,78.064z M24.986,13.031c0.002-1.136,0.969-2.072,2.085-2.088h6.158h6.159
	c1.117,0.016,2.088,0.952,2.088,2.088v3.559c0,1.133-0.916,2.092-2.088,2.088H33.23h-6.158c-1.167,0.004-2.083-0.955-2.085-2.088
	V13.031z M17.301,71.45c-3.059-0.023-5.553-2.517-5.546-5.598c-0.007-3.071,2.487-5.562,5.546-5.547
	c3.09-0.016,5.584,2.476,5.598,5.547C22.886,68.934,20.391,71.427,17.301,71.45z M18.014,41.986
	c-3.508-0.021-6.369-2.421-6.362-6.363v-8.141c0.025-3.396,2.219-6.356,6.362-6.363H33.23h15.215
	c4.148,0.007,6.343,2.967,6.363,6.363v8.141c0.011,3.942-2.85,6.343-6.363,6.363H33.23H18.014z M43.46,65.853
	c-0.009-3.071,2.482-5.562,5.545-5.547c3.09-0.016,5.584,2.476,5.6,5.547c-0.016,3.081-2.51,5.574-5.6,5.598
	C45.942,71.427,43.451,68.934,43.46,65.853z"/>
</svg>
